<svg width="50" height="50" viewBox="0 0 50 50" fill="none" xmlns="http://www.w3.org/2000/svg">
<path d="M29.07 27.68C29.415 28.115 31.85 32.53 32.875 34.42C35.17 34.805 41.46 35.925 41.64 35.98C41.779 36.02 41.905 36.0955 42.005 36.2C42.1056 36.3076 42.1731 36.4418 42.1997 36.5867C42.2263 36.7316 42.2108 36.881 42.155 37.0173C42.0992 37.1537 42.0055 37.2711 41.885 37.3558C41.7644 37.4404 41.6222 37.4888 41.475 37.495C41.085 37.515 32.7 37.245 31.83 37.155C31.4686 37.129 31.1307 36.9663 30.885 36.7L30.83 36.635C30.755 36.55 29.92 35.35 28.965 33.96C28.92 35.205 28.87 36.42 28.83 37.285C31.46 38.655 38.025 42.12 38.215 42.255C38.3475 42.3405 38.4535 42.462 38.52 42.605C38.5899 42.7507 38.6175 42.9131 38.5998 43.0737C38.5821 43.2344 38.5197 43.3868 38.4198 43.5138C38.3198 43.6408 38.1863 43.7373 38.0344 43.7923C37.8824 43.8473 37.7181 43.8586 37.56 43.825C37.5126 43.8145 37.4658 43.8012 37.42 43.785C36.28 43.43 28.19 40.42 26.575 39.785C26.185 39.6312 25.8685 39.3343 25.69 38.955C25.6168 38.7969 25.5696 38.6281 25.55 38.455C25.505 38.12 24.85 29.555 24.85 28.955C24.845 28.8818 24.845 28.8083 24.85 28.735C24.8969 28.2611 25.0891 27.8133 25.4003 27.4529C25.7115 27.0925 26.1265 26.837 26.5885 26.7215C27.0505 26.606 27.5369 26.6361 27.9811 26.8077C28.4253 26.9793 28.8056 27.2839 29.07 27.68ZM34.8 17.515C34.7071 17.6771 34.5747 17.813 34.415 17.91C32.7083 18.9072 30.9528 19.8183 29.155 20.64C29.3545 19.4585 29.2141 18.2447 28.75 17.14C29.415 16.95 32.45 16.175 33.07 16.04C33.5 15.155 34.25 13.74 34.57 13.155L34.745 12.84C34.4954 12.9162 34.2359 12.955 33.975 12.955C33.4468 12.955 32.9304 12.7986 32.4909 12.5055C32.0515 12.2125 31.7086 11.7959 31.5056 11.3082C31.3026 10.8206 31.2484 10.2838 31.35 9.76545C31.4516 9.2471 31.7044 8.77044 32.0765 8.39555C32.4486 8.02066 32.9234 7.76432 33.441 7.65886C33.9586 7.5534 34.4958 7.60353 34.9849 7.80293C35.474 8.00233 35.8932 8.34208 36.1895 8.77934C36.4858 9.2166 36.6461 9.7318 36.65 10.26C36.8078 10.2772 36.9537 10.352 37.0598 10.4701C37.1659 10.5882 37.2247 10.7413 37.225 10.9C37.23 10.948 37.23 10.997 37.225 11.045C36.5393 13.2457 35.7297 15.4058 34.8 17.515ZM28.725 14.4325C28.6959 14.7547 28.6034 15.068 28.4526 15.3543C28.3018 15.6405 28.0958 15.8941 27.8465 16.1003C27.5972 16.3065 27.3096 16.4613 27.0001 16.5557C26.6907 16.6502 26.3656 16.6824 26.0436 16.6506C25.7217 16.6187 25.4092 16.5234 25.1243 16.3701C24.8394 16.2169 24.5876 16.0087 24.3836 15.7576C24.1795 15.5065 24.0272 15.2175 23.9355 14.9073C23.8437 14.597 23.8143 14.2717 23.849 13.95C23.8807 13.6298 23.9751 13.319 24.1269 13.0353C24.2787 12.7516 24.4849 12.5006 24.7337 12.2966C24.9826 12.0925 25.2691 11.9395 25.5771 11.8463C25.885 11.753 26.2083 11.7213 26.5285 11.753C26.8487 11.7847 27.1595 11.8791 27.4432 12.0309C27.7269 12.1827 27.9779 12.3889 28.1819 12.6377C28.386 12.8866 28.539 13.1731 28.6322 13.4811C28.7255 13.789 28.7572 14.1123 28.7255 14.4325H28.725ZM15.415 30.415C15.3358 30.4398 15.2528 30.4499 15.17 30.445C15.068 30.4457 14.967 30.4261 14.8726 30.3874C14.7783 30.3486 14.6926 30.2916 14.6205 30.2195C14.5484 30.1474 14.4914 30.0617 14.4526 29.9674C14.4139 29.873 14.3943 29.772 14.395 29.67C14.394 29.5699 14.413 29.4706 14.4508 29.3779C14.4885 29.2852 14.5444 29.2009 14.615 29.13C14.93 28.76 19.31 25.975 20.93 25.01C21.425 23.47 22.855 19.51 23.12 19.08C23.3233 18.6949 23.65 18.3891 24.0477 18.2117C24.4454 18.0343 24.8912 17.9955 25.3136 18.1015C25.736 18.2076 26.1106 18.4523 26.3773 18.7965C26.6441 19.1407 26.7877 19.5645 26.785 20C26.784 20.247 26.735 20.4915 26.64 20.72C26.435 21.275 23.34 26.12 22.935 26.59C22.8341 26.7252 22.7043 26.8363 22.555 26.915C22.04 27.235 16.22 30.085 15.415 30.415ZM16.155 10.025C14.9506 10.4306 13.6856 10.6268 12.415 10.605C11.1276 10.6326 9.84522 10.4363 8.625 10.025L10.29 15.225C10.3184 15.3152 10.3103 15.4129 10.2672 15.4971C10.2242 15.5813 10.1498 15.6452 10.06 15.675H9.95C9.87485 15.6748 9.80165 15.651 9.74068 15.6071C9.6797 15.5631 9.63401 15.5012 9.61 15.43C9.61 15.43 7.5 9.715 7.5 8.795C7.5 7.38 10.575 7 12.39 7C14.205 7 17.28 7.38 17.28 8.795C17.28 9.715 15.17 15.43 15.17 15.43C15.146 15.5012 15.1003 15.5631 15.0393 15.6071C14.9784 15.651 14.9052 15.6748 14.83 15.675H14.72C14.6302 15.6452 14.5558 15.5813 14.5128 15.4971C14.4697 15.4129 14.4616 15.3152 14.49 15.225L16.155 10.025ZM12.415 9.9C14.585 9.9 16.415 9.465 16.415 8.81C16.415 8.155 14.595 7.72 12.415 7.72C10.235 7.72 8.415 8.155 8.415 8.81C8.415 9.465 10.22 9.9 12.415 9.9Z" fill="black"/>
</svg>
