<svg width="12" height="12" viewBox="0 0 12 12" fill="none" xmlns="http://www.w3.org/2000/svg">
<path d="M6 0C2.6916 0 0 2.6916 0 6C0 9.3084 2.6916 12 6 12C9.3084 12 12 9.3084 12 6C12 2.6916 9.3084 0 6 0ZM6 10.7233C3.3956 10.7233 1.27657 8.60453 1.27657 6C1.27657 3.39547 3.3956 1.2767 6 1.2767C8.6044 1.2767 10.7234 3.39547 10.7234 6C10.7234 8.60453 8.6044 10.7233 6 10.7233Z" fill="#FFBCBF"/>
<path d="M9.12695 5.81474H6.43054V2.57266C6.43054 2.29983 6.20933 2.07863 5.9365 2.07863C5.66368 2.07863 5.44247 2.29983 5.44247 2.57266V6.30877C5.44247 6.5816 5.66368 6.8028 5.9365 6.8028H9.12695C9.39978 6.8028 9.62098 6.5816 9.62098 6.30877C9.62098 6.03594 9.39978 5.81474 9.12695 5.81474Z" fill="#FFBCBF"/>
</svg>
