<svg width="14" height="14" viewBox="0 0 14 14" fill="none" xmlns="http://www.w3.org/2000/svg">
<path d="M7 0C3.1402 0 0 3.1402 0 7C0 10.8598 3.1402 14 7 14C10.8598 14 14 10.8598 14 7C14 3.1402 10.8598 0 7 0ZM7 12.5105C3.96153 12.5105 1.48934 10.0386 1.48934 7C1.48934 3.96138 3.96153 1.48948 7 1.48948C10.0385 1.48948 12.5107 3.96138 12.5107 7C12.5107 10.0386 10.0385 12.5105 7 12.5105Z" fill="#B3B3B3"/>
<path d="M10.6481 6.78386H7.50229V3.00144C7.50229 2.68314 7.24422 2.42507 6.92592 2.42507C6.60762 2.42507 6.34955 2.68314 6.34955 3.00144V7.36023C6.34955 7.67853 6.60762 7.9366 6.92592 7.9366H10.6481C10.9664 7.9366 11.2245 7.67853 11.2245 7.36023C11.2245 7.04193 10.9664 6.78386 10.6481 6.78386Z" fill="#B3B3B3"/>
</svg>
