<svg width="115" height="61" viewBox="0 0 115 61" fill="none" xmlns="http://www.w3.org/2000/svg">
<path d="M43.2515 37.1856C43.2515 30.3048 37.7913 24.7416 31.0379 24.7416C24.2844 24.7416 18.8242 30.3048 18.8242 37.1856C18.8242 44.0664 24.2844 49.6296 31.0379 49.6296C31.3732 49.6296 31.7563 49.6296 32.0916 49.5808C32.0437 49.2392 32.0437 48.9464 32.0437 48.556C32.0437 48.2144 32.0437 47.824 32.0916 47.4824C31.7563 47.5312 31.3732 47.5312 31.0379 47.5312C25.3861 47.5312 20.8359 42.8952 20.8359 37.1368C20.8359 31.3784 25.3861 26.7424 31.0379 26.7424C36.6897 26.7424 41.2399 31.3784 41.2399 37.1368C41.2399 41.724 38.2703 45.6768 34.1991 46.9944C34.1033 47.4824 34.0554 48.0192 34.0554 48.556C34.0554 48.8 34.0554 48.9464 34.0554 49.1904C39.324 47.8728 43.2515 42.9928 43.2515 37.1856Z" fill="#0081C8"/>
<path d="M96.1294 37.1856C96.1294 44.0664 90.6692 49.6296 83.9158 49.6296C77.5455 49.6296 72.2769 44.6032 71.75 38.308C72.4685 38.4056 73.1869 38.552 73.8575 38.7472C74.5759 43.7736 78.8387 47.58 83.9158 47.58C89.5676 47.58 94.1177 42.944 94.1177 37.1856C94.1177 31.4272 89.5676 26.7912 83.9158 26.7912C78.5034 26.7912 74.0969 31.0856 73.7617 36.5024C73.0911 36.3072 72.4206 36.2096 71.75 36.1608C72.229 29.7192 77.4976 24.7416 83.9158 24.7416C90.6213 24.7416 96.1294 30.3048 96.1294 37.1856Z" fill="#EE2E4E"/>
<path d="M80.8511 49.2392C80.5158 54.656 76.1093 58.9504 70.697 58.9504C65.0452 58.9504 60.495 54.3144 60.495 48.556C60.495 43.9688 63.4646 40.016 67.5358 38.6984C67.6316 38.2104 67.6316 37.6736 67.6316 37.1368C67.6316 36.8928 67.6316 36.7464 67.6316 36.5024C62.363 37.8688 58.5312 42.7488 58.5312 48.5072C58.5312 55.388 63.9915 60.9512 70.7449 60.9512C77.1631 60.9512 82.4317 55.876 82.9107 49.532C82.1443 49.4832 81.4738 49.4344 80.8511 49.2392ZM70.697 38.2104C75.7741 38.2104 80.0369 42.0168 80.7553 47.0432C81.4259 47.2872 82.1443 47.3848 82.8628 47.4824C82.3359 41.0896 77.1152 36.1608 70.697 36.1608C70.3617 36.1608 69.9786 36.1608 69.6433 36.2096C69.6912 36.5512 69.6912 36.844 69.6912 37.2344C69.6912 37.576 69.6912 37.9664 69.6433 38.308C69.9786 38.2592 70.3617 38.2104 70.697 38.2104Z" fill="#00A54F"/>
<path d="M56.4224 49.5808C55.9434 56.0224 50.6748 61 44.2566 61C37.5032 61 32.043 55.4368 32.043 48.556C32.043 42.7488 35.9226 37.9176 41.1433 36.5512C41.1433 36.7952 41.1433 36.9416 41.1433 37.1856C41.1433 37.7224 41.0954 38.2104 40.9996 38.7472C36.9284 40.1136 33.9588 43.9688 33.9588 48.6048C33.9588 54.3632 38.509 58.9992 44.1608 58.9992C49.5731 58.9992 53.9796 54.7048 54.3149 49.288C55.0813 49.3856 55.7518 49.532 56.4224 49.5808ZM43.155 38.2592C43.2029 37.9176 43.2029 37.5272 43.2029 37.1856C43.2029 36.844 43.2029 36.5024 43.155 36.1608C43.4903 36.112 43.8734 36.112 44.2087 36.112C50.579 36.112 55.8476 41.0896 56.3745 47.4336C55.656 47.336 54.9376 47.1896 54.267 46.9944C53.5486 41.968 49.2858 38.1616 44.2087 38.1616C43.8734 38.2104 43.5382 38.2104 43.155 38.2592Z" fill="#FBB131"/>
<path d="M57.4744 47.5312C52.3973 47.5312 48.1345 43.7248 47.416 38.6984C46.7455 38.4544 46.027 38.3568 45.3086 38.2592C45.8355 44.652 51.0562 49.5808 57.4744 49.5808C57.8096 49.5808 58.1928 49.5808 58.5281 49.532C58.4802 49.1904 58.4802 48.8976 58.4802 48.5072C58.4802 48.1656 58.4802 47.7752 58.5281 47.4336C58.1928 47.5312 57.8575 47.5312 57.4744 47.5312ZM57.4744 24.7416C51.1041 24.7416 45.7876 29.8168 45.3086 36.1608C45.9791 36.2096 46.6497 36.356 47.3203 36.5024C47.6555 31.0856 52.062 26.7912 57.4744 26.7912C63.1262 26.7912 67.6284 31.4272 67.6284 37.1856C67.6284 41.7728 64.6589 45.7256 60.5876 47.0432C60.4918 47.5312 60.4439 48.068 60.4439 48.6048C60.4439 48.8488 60.4439 48.9952 60.4439 49.2392C65.7126 47.8728 69.5443 42.9928 69.5443 37.2344C69.688 30.3048 64.1799 24.7416 57.4744 24.7416Z" fill="#231F20"/>
<path d="M6.27446 16.348H3.68804V2.58639H0V0.19519H9.96251V2.58639H6.27446V16.348Z" fill="#002361"/>
<path d="M38.3158 16.348H35.2983L31.5145 9.3696L30.0776 11.4192V16.348H27.5391V0.243993H30.0776V7.46639H30.1255L34.9152 0.19519H37.8368L33.1909 7.22239L38.3158 16.348Z" fill="#002361"/>
<path d="M46.8891 16.348H44.3506V9.3696L40.1836 0.19519H42.8179L45.5959 6.53919H45.6917L48.5176 0.19519H51.1519L46.937 9.3696V16.348H46.8891Z" fill="#002361"/>
<path d="M78.4088 16.348H69.5V14.0056L69.5479 13.9568L75.4392 6.19756C75.7266 5.85596 75.9181 5.41677 75.9181 4.68477C75.9181 3.36717 74.9123 2.58637 74.0023 2.58637C73.4275 2.58637 72.9486 2.78156 72.5654 3.12316C72.2301 3.46476 71.9906 4.09917 71.9427 4.92877V5.07516H69.5V4.92877C69.5 3.56237 69.979 2.24477 70.7932 1.36637C71.6075 0.487966 72.6133 0.0487671 73.8107 0.0487671C75.1518 0.0487671 76.2534 0.487966 77.0677 1.36637C77.9298 2.24477 78.313 3.36716 78.313 4.73356C78.313 5.85596 77.9777 6.78316 77.2114 7.80796L72.757 13.7128L72.8049 13.7616H78.4088V16.348Z" fill="#002361"/>
<path d="M103.073 16.348H94.1641V14.0056L94.212 13.9568L100.103 6.19756C100.391 5.85596 100.582 5.41677 100.582 4.68477C100.582 3.36717 99.5764 2.58637 98.6663 2.58637C98.0916 2.58637 97.6126 2.78156 97.2294 3.12316C96.8942 3.46476 96.6547 4.09917 96.6068 4.92877V5.07516H94.1641V4.92877C94.1641 3.56237 94.643 2.24477 95.4573 1.36637C96.2715 0.487966 97.2773 0.0487671 98.4748 0.0487671C99.8638 0.0487671 100.917 0.487966 101.732 1.36637C102.594 2.24477 102.977 3.36716 102.977 4.73356C102.977 5.85596 102.642 6.78316 101.875 7.80796L97.421 13.7128L97.4689 13.7616H103.073V16.348Z" fill="#002361"/>
<path d="M57.9539 2.6352C56.4691 2.6352 55.4154 3.7576 55.4154 5.3192V11.1264C55.4154 12.8344 56.4212 13.9568 57.9539 13.9568C59.4866 13.9568 60.4924 12.8344 60.4924 11.1264V5.3192C60.4924 3.7088 59.4387 2.6352 57.9539 2.6352ZM57.9539 16.4456C55.0322 16.4456 52.9727 14.396 52.9727 11.5168V4.88C52.9727 2.0008 55.0322 0 57.9539 0C60.9235 0 62.9352 2.0008 62.9352 4.88V11.5168C62.8873 14.396 60.8277 16.4456 57.9539 16.4456Z" fill="#002361"/>
<path d="M17.9148 2.6352C16.4301 2.6352 15.3763 3.7576 15.3763 5.3192V11.1264C15.3763 12.8344 16.3822 13.9568 17.9148 13.9568C19.4475 13.9568 20.4534 12.8344 20.4534 11.1264V5.3192C20.5013 3.7088 19.3996 2.6352 17.9148 2.6352ZM17.9148 16.4456C14.9932 16.4456 12.9336 14.396 12.9336 11.5168V4.88C12.9336 2.0008 14.9932 0 17.9148 0C20.8844 0 22.8961 2.0008 22.8961 4.88V11.5168C22.8961 14.396 20.7886 16.4456 17.9148 16.4456Z" fill="#002361"/>
<path d="M86.4534 2.63516C84.777 2.63516 84.4896 3.90397 84.4896 5.02637V11.6144C84.4896 13.2248 85.1602 14.0056 86.4534 14.0056C87.7945 14.0056 88.4171 13.2248 88.4171 11.6144V5.02637C88.4171 3.90397 88.1297 2.63516 86.4534 2.63516ZM86.4534 16.4456C84.777 16.4456 82.0469 15.4208 82.0469 11.7608V4.73356C82.0469 1.90316 83.819 0.0487671 86.4534 0.0487671C89.0877 0.0487671 90.8598 1.90316 90.8598 4.73356V11.7608C90.9077 15.4696 88.1297 16.4456 86.4534 16.4456Z" fill="#002361"/>
<path d="M110.594 2.63516C108.918 2.63516 108.63 3.90397 108.63 5.02637V11.6144C108.63 13.2248 109.253 14.0056 110.594 14.0056C111.935 14.0056 112.558 13.2248 112.558 11.6144V5.02637C112.558 3.90397 112.27 2.63516 110.594 2.63516ZM110.594 16.4456C108.918 16.4456 106.188 15.4208 106.188 11.7608V4.73356C106.188 1.90316 107.96 0.0487671 110.594 0.0487671C113.228 0.0487671 115 1.90316 115 4.73356V11.7608C115 15.4696 112.27 16.4456 110.594 16.4456Z" fill="#002361"/>
</svg>
