<svg width="50" height="50" viewBox="0 0 50 50" fill="none" xmlns="http://www.w3.org/2000/svg">
<path d="M40.3633 42.63C40.3792 42.7061 40.3684 42.7853 40.333 42.8544C40.2975 42.9236 40.2394 42.9785 40.1683 43.01C40.1 43.0289 40.0292 43.0373 39.9583 43.035H37.1683C37.1236 43.0417 37.0781 43.0417 37.0333 43.035C36.9642 43.0163 36.9028 42.9763 36.8577 42.9207C36.8127 42.8651 36.7863 42.7966 36.7824 42.7252C36.7785 42.6537 36.7973 42.5828 36.8361 42.5226C36.8749 42.4624 36.9317 42.416 36.9983 42.39H37.0733L38.7033 42.03L33.9533 33.35L28.0933 36.35L25.7933 41.465L24.4483 41.015C24.4483 41.015 23.7033 42.765 23.6383 42.865C23.6155 42.9076 23.5842 42.9451 23.5464 42.9752C23.5086 43.0053 23.465 43.0273 23.4183 43.04C23.3753 43.0476 23.3313 43.0476 23.2883 43.04H20.1333C20.0919 43.0462 20.0498 43.0462 20.0083 43.04C19.9328 43.0185 19.8658 42.9741 19.8165 42.9129C19.7672 42.8517 19.7381 42.7768 19.7332 42.6984C19.7282 42.62 19.7477 42.542 19.7889 42.4751C19.8302 42.4083 19.8911 42.3558 19.9633 42.325H20.0283L22.6133 41.75L24.6683 34.48C24.7922 33.9974 25.0918 33.5784 25.5083 33.305L35.2733 26.57L38.0683 28.3L36.8883 29.425L40.8883 40.365L39.7283 40.93C39.7283 40.93 40.3183 42.465 40.3633 42.63ZM27.1233 6.03L27.2333 6C27.3038 6.00436 27.3709 6.03151 27.4245 6.07736C27.4781 6.12321 27.5154 6.18527 27.5306 6.25415C27.5458 6.32304 27.5383 6.39502 27.509 6.45921C27.4797 6.52341 27.4303 6.57634 27.3683 6.61L27.2583 6.655L25.0983 7.35C25.0983 7.35 23.9583 13.455 23.8783 13.85C23.8205 14.2056 23.6587 14.5362 23.4133 14.8C23.1483 15.1 21.9133 16.38 21.9133 16.38L24.5033 16.295L29.5033 12.87L30.3833 13.925C30.3833 13.925 31.8783 12.89 31.9583 12.84C32.0199 12.8019 32.0909 12.7818 32.1633 12.7818C32.2358 12.7818 32.3067 12.8019 32.3683 12.84L34.9433 14.435L35.0083 14.48C35.0689 14.5177 35.1169 14.5724 35.1463 14.6374C35.1757 14.7024 35.1851 14.7747 35.1733 14.845C35.1668 14.8929 35.1505 14.9389 35.1255 14.9802C35.1005 15.0216 35.0673 15.0574 35.028 15.0855C34.9887 15.1136 34.944 15.1334 34.8968 15.1436C34.8496 15.1538 34.8008 15.1543 34.7533 15.145L34.6383 15.115L32.2583 14.29L26.4833 19.545C26.3483 19.6653 26.2008 19.7709 26.0433 19.86C25.8533 19.965 25.6472 20.0376 25.4333 20.075C25.0283 20.145 19.3133 21.075 19.3133 21.075L14.7183 17.145L16.0933 14.695L17.1933 15.465L20.7483 12.59L22.3783 7.86L23.5833 8.145C23.5833 8.145 24.0783 6.64 24.1383 6.485C24.1559 6.42477 24.1929 6.37204 24.2435 6.33497C24.2942 6.29791 24.3556 6.27858 24.4183 6.28L27.1233 6.03ZM34.1683 25.885L29.8933 28.815L26.5183 27.56L25.0883 29.195C24.987 29.3102 24.869 29.4096 24.7383 29.49L21.0483 31.705L20.5483 30.96L19.2283 31.72C19.2283 31.72 20.0283 33.05 20.0833 33.15C20.1298 33.228 20.1603 33.315 20.1733 33.405C20.1864 33.554 20.1418 33.7024 20.0488 33.8196C19.9558 33.9367 19.8214 34.0138 19.6733 34.035C19.5796 34.0398 19.4859 34.0234 19.3994 33.9871C19.3128 33.9507 19.2356 33.8953 19.1733 33.825C19.0533 33.705 15.7083 29.825 15.7083 29.825L11.2783 29.08C10.9416 29.0278 10.6226 28.8944 10.3489 28.6914C10.0752 28.4884 9.85503 28.2218 9.70737 27.9147C9.55971 27.6076 9.48902 27.2691 9.50138 26.9286C9.51375 26.588 9.6088 26.2556 9.77834 25.96L14.1383 18.185L18.2833 21.725L16.5933 26.945L17.0433 27.15C17.2999 27.2604 17.5175 27.4449 17.6683 27.68L19.2683 30.125L22.7683 27.27L24.9133 22.955C25.0452 22.6842 25.2323 22.4441 25.4627 22.2501C25.6931 22.0561 25.9616 21.9125 26.2508 21.8287C26.5401 21.7448 26.8437 21.7225 27.1421 21.7632C27.4405 21.8039 27.7271 21.9067 27.9833 22.065L34.1683 25.885ZM18.5633 24.03C18.564 23.7332 18.6231 23.4395 18.7373 23.1655C18.8515 22.8916 19.0185 22.6428 19.2288 22.4334C19.4391 22.224 19.6887 22.0581 19.9631 21.9451C20.2375 21.8321 20.5316 21.7743 20.8283 21.775C21.1251 21.7757 21.4189 21.8348 21.6928 21.9489C21.9668 22.0631 22.2155 22.2301 22.4249 22.4405C22.6343 22.6508 22.8003 22.9003 22.9132 23.1748C23.0262 23.4492 23.084 23.7432 23.0833 24.04C23.082 24.6394 22.8426 25.2137 22.4179 25.6366C21.9931 26.0595 21.4177 26.2963 20.8183 26.295C20.219 26.2937 19.6446 26.0543 19.2217 25.6295C18.7989 25.2048 18.562 24.6294 18.5633 24.03ZM13.6683 30.415C13.9649 30.415 14.2585 30.4735 14.5325 30.5871C14.8064 30.7008 15.0552 30.8673 15.2646 31.0772C15.4741 31.2872 15.6401 31.5363 15.7531 31.8105C15.8662 32.0847 15.924 32.3784 15.9233 32.675C15.9233 33.1222 15.7907 33.5593 15.5421 33.9311C15.2936 34.3029 14.9403 34.5925 14.527 34.7634C14.1138 34.9343 13.6591 34.9788 13.2206 34.8912C12.7821 34.8036 12.3794 34.5879 12.0635 34.2713C11.7476 33.9547 11.5328 33.5516 11.4462 33.1128C11.3595 32.6741 11.405 32.2195 11.5768 31.8067C11.7486 31.3938 12.0391 31.0412 12.4114 30.7934C12.7837 30.5457 13.2211 30.414 13.6683 30.415Z" fill="black"/>
</svg>
