<svg width="21" height="22" viewBox="0 0 21 22" fill="none" xmlns="http://www.w3.org/2000/svg">
<ellipse cx="10.5" cy="10.5814" rx="10.5" ry="10.5814" fill="url(#paint0_linear)"/>
<path d="M7.01827 0.595642C5.59931 1.0981 4.3198 1.89902 3.25391 2.92365L3.29243 3.91363C3.32972 4.48806 3.46503 5.94294 3.70796 7.16696C4.00446 8.66097 4.40763 9.87857 4.5306 10.25C4.53357 10.2589 4.53637 10.2674 4.53901 10.2754C4.65088 10.6136 5.21024 12.1275 5.57782 12.8361C5.6474 12.9703 5.71699 13.1102 5.7907 13.2584C6.10634 13.8931 6.49753 14.6798 7.28786 15.8157C8.26275 17.2169 8.79015 17.9094 9.31754 18.4731C9.73946 18.9241 10.1646 19.4126 10.3244 19.6005C9.85298 19.9126 8.85712 20.5511 8.20087 20.9083C8.94087 21.0749 9.71035 21.1628 10.5002 21.1628C11.8213 21.1628 13.0854 20.9169 14.2499 20.4681L12.8975 19.6327C13.8883 18.4838 16.1481 15.6514 17.2605 13.5126C18.6089 10.9198 19.311 8.44816 19.702 5.48074C18.8991 4.01287 17.7605 2.75771 16.3903 1.8204L16.3975 1.86821C16.472 2.55002 16.6244 4.10045 16.6372 4.84775C16.6532 5.78188 16.6532 7.81119 16.5733 8.74532C16.4933 9.67944 16.3335 11.3544 15.902 12.4335C15.4705 13.5126 14.9431 14.5594 14.5436 15.2037C14.144 15.8479 13.265 17.1525 11.6029 18.6181C10.9956 18.151 9.56047 16.8142 8.67827 15.2037C7.71329 13.442 7.65393 13.2589 7.34359 12.3017C7.29929 12.1651 7.24987 12.0126 7.19197 11.8376C6.99487 11.1773 6.60704 9.42819 6.63261 7.71456C6.66291 5.68427 6.75063 3.30672 7.01827 0.595642Z" fill="white"/>
<ellipse cx="11.5694" cy="14.6561" rx="1.88584" ry="1.90046" fill="white"/>
<defs>
<linearGradient id="paint0_linear" x1="10.5" y1="0" x2="10.5" y2="21.1628" gradientUnits="userSpaceOnUse">
<stop stop-color="#ED1C24"/>
<stop offset="1" stop-color="#CC2026"/>
</linearGradient>
</defs>
</svg>
