<svg width="200" height="60" viewBox="0 0 200 60" fill="none" xmlns="http://www.w3.org/2000/svg">
<circle cx="30" cy="30" r="30" fill="url(#paint0_linear)"/>
<path d="M20.0516 1.68896C15.9975 3.11352 12.3417 5.38426 9.2963 8.28926L9.40636 11.096C9.51291 12.7246 9.89951 16.8494 10.5936 20.3197C11.4407 24.5555 12.5926 28.0076 12.944 29.0606C12.9525 29.086 12.9605 29.11 12.968 29.1325C13.2876 30.0914 14.8858 34.3837 15.936 36.3928C16.1349 36.7732 16.3337 37.1699 16.5443 37.5901C17.4461 39.3895 18.5638 41.6197 20.8219 44.8403C23.6073 48.8129 25.1141 50.7764 26.621 52.3745C27.8265 53.6531 29.0411 55.0382 29.4977 55.5709C28.1508 56.4556 25.3055 58.266 23.4305 59.2786C25.5448 59.7509 27.7433 60.0001 30 60.0001C33.7745 60.0001 37.3862 59.303 40.7135 58.0306L36.8493 55.6622C39.6803 52.405 46.137 44.3745 49.315 38.3106C53.1677 30.9596 55.1736 23.9522 56.2909 15.539C53.9969 11.3774 50.7436 7.8188 46.8289 5.16135L46.8493 5.29692C47.0624 7.22994 47.4977 11.6257 47.5342 13.7444C47.5799 16.3928 47.5799 22.1462 47.3516 24.7946C47.1233 27.443 46.6666 32.1919 45.4338 35.2513C44.2009 38.3106 42.694 41.2786 41.5525 43.1051C40.4109 44.9316 37.8995 48.6302 33.1507 52.7855C31.4155 51.4613 27.315 47.6713 24.7945 43.1051C22.0374 38.1104 21.8678 37.5913 20.9811 34.8776C20.8545 34.4902 20.7133 34.058 20.5479 33.5618C19.9847 31.6896 18.8767 26.7307 18.9497 21.8723C19.0363 16.1161 19.2869 9.37533 20.0516 1.68896Z" fill="white"/>
<circle cx="33.0594" cy="41.5524" r="5.38813" fill="white"/>
<path d="M70.0038 38.25C69.9793 38.393 70.0771 38.4883 70.1993 38.4883H73.8655C73.9877 38.4883 74.0855 38.393 74.1099 38.25L75.1854 32.3647C75.2098 32.2694 75.2587 32.2218 75.3565 32.2218H80.6358C80.7825 32.2218 80.9047 32.1265 80.9291 31.9835L81.4424 29.0766C81.4668 28.9337 81.3935 28.8383 81.2468 28.8383H75.9675C75.8697 28.8383 75.8453 28.7907 75.8453 28.6954L76.383 25.86C76.383 25.7647 76.4319 25.717 76.5296 25.717H83.0066C83.1288 25.717 83.251 25.6217 83.2755 25.4787L83.8132 22.5242C83.8376 22.3812 83.7399 22.2859 83.6177 22.2859H73.1078C72.9856 22.2859 72.8879 22.3812 72.8634 22.5242L70.0038 38.25Z" fill="#0D3C5E"/>
<path d="M80.4842 38.4883H84.517C84.6881 38.4883 84.7859 38.393 84.8592 38.25L86.1057 35.6767H91.2873L91.5806 38.25C91.6051 38.393 91.7028 38.4883 91.8739 38.4883H95.6379C95.7601 38.4883 95.8334 38.393 95.809 38.25L93.2182 22.5242C93.2182 22.3812 93.1204 22.2859 92.9493 22.2859H89.112C88.9409 22.2859 88.8432 22.3812 88.7698 22.5242L80.362 38.25C80.2887 38.393 80.3375 38.4883 80.4842 38.4883ZM87.7189 32.2933L90.2608 27.0513H90.3097L90.8963 32.2933H87.7189Z" fill="#0D3C5E"/>
<path d="M97.4527 38.25C97.4282 38.393 97.526 38.4883 97.6727 38.4883H100.948C101.07 38.4883 101.168 38.393 101.192 38.25L102.903 28.8622H103.025L106.154 38.25C106.203 38.4168 106.325 38.4883 106.496 38.4883H109.991C110.138 38.4883 110.236 38.393 110.26 38.25L113.12 22.5242C113.144 22.3812 113.046 22.2859 112.9 22.2859H109.625C109.478 22.2859 109.38 22.3812 109.356 22.5242L107.645 31.912H107.547L104.418 22.5242C104.345 22.3574 104.223 22.2859 104.052 22.2859H100.581C100.435 22.2859 100.337 22.3812 100.312 22.5242L97.4527 38.25Z" fill="#0D3C5E"/>
<path d="M112.872 38.25C112.847 38.393 112.945 38.4883 113.067 38.4883H123.553C123.699 38.4883 123.797 38.393 123.822 38.25L124.359 35.2955C124.384 35.1525 124.31 35.0572 124.164 35.0572H117.711C117.613 35.0572 117.589 35.0095 117.589 34.9142L118.102 32.1503C118.127 32.055 118.176 32.0073 118.249 32.0073H123.553C123.699 32.0073 123.822 31.912 123.846 31.7691L124.359 28.8622C124.384 28.7192 124.31 28.6239 124.164 28.6239H118.884C118.787 28.6239 118.738 28.5762 118.762 28.4809L119.251 25.86C119.251 25.7647 119.324 25.717 119.398 25.717H125.875C125.997 25.717 126.119 25.6217 126.144 25.4787L126.681 22.5242C126.706 22.3812 126.632 22.2859 126.486 22.2859H115.976C115.854 22.2859 115.756 22.3812 115.731 22.5242L112.872 38.25Z" fill="#0D3C5E"/>
<path d="M126.023 38.25C125.999 38.393 126.097 38.4883 126.219 38.4883H132.696C136.631 38.4883 139.173 36.3677 139.173 32.9842C139.173 31.5308 138.464 30.5062 137.511 30.125L137.535 30.0773C139.295 29.1719 140.224 27.6708 140.224 25.717C140.224 23.5964 138.806 22.2859 135.678 22.2859H129.127C129.005 22.2859 128.908 22.3812 128.883 22.5242L126.023 38.25ZM131.987 28.8383C131.914 28.8383 131.865 28.7907 131.889 28.6954L132.476 25.4787C132.5 25.3834 132.549 25.3358 132.647 25.3358H134.309C135.409 25.3358 135.971 25.7647 135.971 26.6463C135.971 28.0282 134.993 28.8383 133.674 28.8383H131.987ZM130.716 35.2716L131.352 31.7452C131.376 31.6499 131.425 31.6023 131.523 31.6023H133.38C134.529 31.6023 135.067 32.1265 135.067 33.0081C135.067 34.533 134.089 35.4146 132.696 35.4146H130.814C130.716 35.4146 130.692 35.3669 130.716 35.2716Z" fill="#0D3C5E"/>
<path d="M140.368 38.25C140.344 38.393 140.442 38.4883 140.588 38.4883H144.255C144.401 38.4883 144.475 38.393 144.499 38.25L147.359 22.5242C147.383 22.3812 147.31 22.2859 147.163 22.2859H143.497C143.35 22.2859 143.253 22.3812 143.228 22.5242L140.368 38.25Z" fill="#0D3C5E"/>
<path d="M146.952 38.25C146.928 38.393 147.025 38.4883 147.172 38.4883H150.423C150.57 38.4883 150.667 38.393 150.692 38.25L151.254 35.0572C151.278 34.9142 151.181 34.8189 151.034 34.8189H147.783C147.637 34.8189 147.539 34.9142 147.514 35.0572L146.952 38.25Z" fill="#0D3C5E"/>
<path d="M153.75 33.6752C153.75 36.9872 155.95 38.7742 159.102 38.7742C161.913 38.7742 163.844 37.7258 165.359 35.3193C165.433 35.1763 165.408 35.081 165.286 34.9857L162.402 33.4131C162.255 33.3416 162.133 33.4131 162.035 33.5799C161.449 34.533 160.74 35.1763 159.689 35.1763C158.565 35.1763 157.929 34.4377 157.929 33.294C157.929 32.1026 158.663 28.1474 159.151 27.1466C159.64 26.1935 160.373 25.5979 161.4 25.5979C162.5 25.5979 162.989 26.1935 163.233 27.1705C163.257 27.3372 163.38 27.3849 163.575 27.3134L166.777 26.0506C166.948 25.9791 166.997 25.8838 166.948 25.7408C166.41 23.4058 164.651 22 161.84 22C158.834 22 156.683 23.2152 155.387 25.8123C154.434 27.6708 153.75 32.1026 153.75 33.6752Z" fill="#0D3C5E"/>
<path d="M172.903 38.7742C175.811 38.7742 178.133 37.6305 179.477 34.9857C180.382 33.1987 181.115 28.6716 181.115 27.099C181.115 23.7394 178.915 22 175.591 22C172.658 22 170.336 23.1437 169.016 25.7885C168.112 27.5755 167.379 32.1026 167.379 33.6752C167.379 37.0348 169.578 38.7742 172.903 38.7742ZM173.391 35.1763C172.194 35.1763 171.558 34.4377 171.558 33.294C171.558 32.0788 172.291 28.0759 172.756 27.1466C173.22 26.1935 174.002 25.5979 175.102 25.5979C176.3 25.5979 176.935 26.3365 176.935 27.4802C176.935 28.6954 176.202 32.6983 175.738 33.6276C175.273 34.5806 174.491 35.1763 173.391 35.1763Z" fill="#0D3C5E"/>
<path d="M181.494 38.25C181.47 38.393 181.567 38.4883 181.69 38.4883H184.989C185.111 38.4883 185.209 38.393 185.234 38.25L186.798 29.6485H186.871L188.362 35.9626C188.46 36.1771 188.607 36.2724 188.778 36.2724H190.586C190.733 36.2724 190.928 36.2009 191.075 35.9626L194.815 29.6485H194.912L193.373 38.25C193.348 38.393 193.446 38.4883 193.593 38.4883H196.868C197.014 38.4883 197.112 38.393 197.137 38.25L199.996 22.5242C200.021 22.3812 199.923 22.2859 199.776 22.2859H196.159C196.012 22.2859 195.841 22.3336 195.743 22.5242L190.562 31.1496H190.464L188.289 22.5242C188.264 22.3336 188.093 22.2859 187.922 22.2859H184.598C184.476 22.2859 184.378 22.3812 184.354 22.5242L181.494 38.25Z" fill="#0D3C5E"/>
<defs>
<linearGradient id="paint0_linear" x1="30" y1="0" x2="30" y2="60" gradientUnits="userSpaceOnUse">
<stop stop-color="#ED1C24"/>
<stop offset="1" stop-color="#CC2026"/>
</linearGradient>
</defs>
</svg>
