<svg width="18" height="18" viewBox="0 0 18 18" fill="none" xmlns="http://www.w3.org/2000/svg">
<path d="M12.3761 6.36749L14.6261 1.94061C14.6755 1.8551 14.7015 1.7581 14.7015 1.65936C14.7015 1.56062 14.6755 1.46362 14.6261 1.37811C14.5736 1.29832 14.5017 1.23321 14.417 1.18892C14.3324 1.14464 14.2379 1.12263 14.1424 1.12499H11.1724C11.0685 1.1253 10.9668 1.15437 10.8784 1.20898C10.79 1.26359 10.7185 1.3416 10.6718 1.43436L9.00114 4.71936L7.31364 1.43436C7.26823 1.3441 7.19934 1.26774 7.11422 1.2133C7.02909 1.15886 6.93088 1.12835 6.82989 1.12499H3.85989C3.76281 1.12442 3.66724 1.14899 3.58247 1.1963C3.4977 1.24362 3.42662 1.31206 3.37614 1.39499C3.32677 1.4805 3.30078 1.5775 3.30078 1.67624C3.30078 1.77498 3.32677 1.87198 3.37614 1.95749L5.62614 6.38436C5.67366 6.47608 5.7455 6.55294 5.83381 6.60652C5.92212 6.6601 6.02348 6.68833 6.12677 6.68811H7.39802C7.31645 6.93687 7.27469 7.19695 7.27427 7.45874C7.26871 7.56366 7.26871 7.66881 7.27427 7.77374C6.24281 8.17748 5.38474 8.92878 4.84828 9.89786C4.31183 10.867 4.13067 11.993 4.33611 13.0814C4.54154 14.1699 5.12066 15.1524 5.97344 15.8593C6.82622 16.5661 7.8991 16.953 9.00677 16.953C10.1144 16.953 11.1873 16.5661 12.0401 15.8593C12.8929 15.1524 13.472 14.1699 13.6774 13.0814C13.8829 11.993 13.7017 10.867 13.1652 9.89786C12.6288 8.92878 11.7707 8.17748 10.7393 7.77374C10.7545 7.66557 10.7638 7.55666 10.7674 7.44749C10.7798 7.18626 10.7533 6.92464 10.6886 6.67124H11.9205C12.016 6.66361 12.108 6.63171 12.1878 6.57855C12.2675 6.52539 12.3324 6.45274 12.3761 6.36749ZM11.8586 11.43L10.4243 12.8306L10.7618 14.8106L9.00114 13.8656L7.22364 14.7994L7.56114 12.8194L6.12677 11.4187L8.11239 11.1319L9.00114 9.32624L9.88989 11.1319L11.8586 11.43ZM9.63677 7.45311C9.63677 7.45311 9.63677 7.45311 9.63677 7.49249C9.42648 7.45795 9.21414 7.43728 9.00114 7.43061C8.79596 7.4312 8.59108 7.44624 8.38802 7.47561C8.38539 7.46452 8.38539 7.45296 8.38802 7.44186C8.38062 7.16523 8.46574 6.89403 8.62989 6.67124H9.41739C9.57954 6.89474 9.66267 7.16588 9.65364 7.44186L9.63677 7.45311Z" fill="#ABABB1"/>
</svg>
