<svg width="20" height="16" viewBox="0 0 20 16" fill="none" xmlns="http://www.w3.org/2000/svg">
<path fill-rule="evenodd" clip-rule="evenodd" d="M1.11111 2.28571H18.8889C19.5556 2.28571 20 1.82857 20 1.14286C20 0.457143 19.5556 0 18.8889 0H1.11111C0.444444 0 0 0.457143 0 1.14286C0 1.82857 0.444444 2.28571 1.11111 2.28571ZM18.8889 6.85714H1.11111C0.444444 6.85714 0 7.31429 0 8C0 8.68571 0.444444 9.14286 1.11111 9.14286H18.8889C19.5556 9.14286 20 8.68571 20 8C20 7.31429 19.5556 6.85714 18.8889 6.85714ZM18.8889 13.7143H1.11111C0.444444 13.7143 0 14.1714 0 14.8571C0 15.5429 0.444444 16 1.11111 16H18.8889C19.5556 16 20 15.5429 20 14.8571C20 14.1714 19.5556 13.7143 18.8889 13.7143Z" fill="#32373F"/>
</svg>
