<svg width="40" height="40" viewBox="0 0 40 40" fill="none" xmlns="http://www.w3.org/2000/svg">
<circle cx="20" cy="20" r="20" fill="#2196F3"/>
<g clip-path="url(#clip0)">
<path d="M19.9989 9.00214C14.0546 8.88493 9.13573 13.5988 9 19.5428C9.01551 22.5685 10.3553 25.4357 12.6663 27.3887V30.5417C12.6663 30.7948 12.8715 31 13.1246 31C13.2105 31 13.2947 30.9759 13.3675 30.9304L15.922 29.3346C17.2235 29.8324 18.6055 30.0863 19.9989 30.0835C25.9433 30.2007 30.8621 25.4868 30.9979 19.5428C30.8621 13.5988 25.9433 8.88493 19.9989 9.00214Z" fill="white"/>
<path d="M27.2409 16.518C27.1046 16.3352 26.8545 16.2805 26.6543 16.3897L21.8881 18.9881L18.923 16.4456C18.7412 16.2897 18.47 16.3 18.3007 16.4694L12.8012 21.9688C12.6228 22.1484 12.6237 22.4385 12.8032 22.617C12.9467 22.7597 13.1669 22.7913 13.3448 22.6948L18.111 20.0963L21.0788 22.6398C21.2606 22.7957 21.5318 22.7853 21.7012 22.6159L27.2006 17.1165C27.3609 16.9547 27.3781 16.6998 27.2409 16.518Z" fill="#2196F3"/>
</g>
<defs>
<clipPath id="clip0">
<rect width="22" height="22" fill="white" transform="translate(9 9)"/>
</clipPath>
</defs>
</svg>
