<svg width="50" height="50" viewBox="0 0 50 50" fill="none" xmlns="http://www.w3.org/2000/svg">
<path d="M41.418 19.0834C40.9596 18.9584 35.5013 17.1667 34.4596 16.8334C33.8763 16.3334 31.5846 14.4584 30.1263 13.2917C30.1263 14.4584 29.9596 15.9584 29.543 17.1667C31.1263 17.9584 32.8346 18.75 33.5013 18.9584H33.543C34.5013 19.25 40.7096 20.2917 41.1263 20.375C41.293 20.375 41.418 20.375 41.5846 20.2917C41.918 20.0834 42.0013 19.6667 41.793 19.3334C41.7096 19.2084 41.5846 19.125 41.418 19.0834Z" fill="black"/>
<path d="M28.707 11.5833C30.1236 12.0417 31.6653 11.2083 32.082 9.79166C32.5403 8.37499 31.707 6.83332 30.2903 6.41666C28.8736 5.95832 27.332 6.79166 26.9153 8.20832C26.457 9.62499 27.2903 11.1667 28.707 11.5833Z" fill="black"/>
<path d="M30.3333 35.4583C28.8333 35.4583 27.625 36.6666 27.625 38.1666C27.625 39.6666 28.8333 40.875 30.3333 40.875C31.8333 40.875 33.0417 39.6666 33.0417 38.1666C33.0417 36.6666 31.8333 35.4583 30.3333 35.4583Z" fill="black"/>
<path d="M11.2903 19.9167C11.457 19.9583 11.6237 19.9167 11.7903 19.875C12.582 19.5417 18.707 16.5417 18.707 16.5417C18.707 16.5417 24.3737 15.7083 25.2487 15.5C26.1237 15.2917 26.832 14.7083 26.9987 13.8333C27.2487 12.6667 26.4987 11.5417 25.3737 11.2917C24.9153 11.2083 24.4987 11.2917 24.082 11.4167C23.6653 11.5417 17.7903 14.0833 17.7903 14.0833C17.707 14.125 17.6237 14.1667 17.582 14.2083L11.082 18.625C10.957 18.7083 10.832 18.875 10.7903 19.0417C10.6653 19.4167 10.9153 19.7917 11.2903 19.9167Z" fill="black"/>
<path d="M25.8764 20.7084C24.9597 20.5 23.9597 20.7917 23.3347 21.5834C23.2097 21.75 23.0847 21.9584 22.9597 22.1667C22.2931 23.4584 20.7097 27.0834 20.0847 28.875C19.5431 28.7917 9.95974 27.3334 9.70974 27.3334C9.45974 27.3334 9.29307 27.3334 9.08474 27.4584C8.66807 27.75 8.54307 28.2917 8.83474 28.7084C8.95974 28.9167 9.16807 29.0417 9.33474 29.0834L20.6264 32.125C21.2514 32.2917 21.9181 32.0417 22.3347 31.5L26.0014 26.375C27.2097 27.5 28.6681 28.6667 30.2931 29.8334L36.5014 39.875C36.6264 40.0833 36.8347 40.2083 37.0847 40.25C37.5431 40.2917 37.9597 40 38.0014 39.5417C38.0431 39.375 38.0014 39.2084 37.9181 39.0834L32.7097 28.2917C32.6681 28.1667 32.5847 28.0834 32.5014 28C32.5014 28 27.6264 21.9167 27.1681 21.5417C26.7097 21.0417 26.3347 20.8334 25.8764 20.7084Z" fill="black"/>
</svg>
