<svg width="14" height="14" viewBox="0 0 14 14" fill="none" xmlns="http://www.w3.org/2000/svg">
<path d="M13.5333 12.7474L10.2175 9.28421C11.0772 8.25263 11.5438 6.97544 11.5438 5.64912C11.5438 2.52982 9.01403 0 5.89473 0C2.77543 0 0.245605 2.52982 0.245605 5.64912C0.245605 8.76842 2.77543 11.2982 5.89473 11.2982C7.07367 11.2982 8.17894 10.9544 9.13683 10.2667L12.4772 13.7544C12.6246 13.9018 12.7965 13.9754 13.0175 13.9754C13.214 13.9754 13.386 13.9018 13.5333 13.7789C13.8281 13.5088 13.8281 13.0421 13.5333 12.7474ZM5.89473 1.47368C8.2035 1.47368 10.0702 3.34035 10.0702 5.64912C10.0702 7.95789 8.2035 9.82456 5.89473 9.82456C3.58596 9.82456 1.71929 7.95789 1.71929 5.64912C1.71929 3.34035 3.58596 1.47368 5.89473 1.47368Z" fill="#BBBDC0"/>
</svg>
