<svg width="40" height="40" viewBox="0 0 40 40" fill="none" xmlns="http://www.w3.org/2000/svg">
<circle cx="20" cy="20" r="20" fill="#E71D25"/>
<path d="M25.2509 12C23.7283 12 22.5009 13.2371 22.5009 14.75C22.5009 14.8968 22.5123 15.0439 22.5342 15.1846L17.2803 18.0498C16.7289 17.4082 15.9132 17.001 15.001 17.001C13.3344 17.001 12 18.3471 12 19.998C12 21.649 13.3344 22.999 15.001 22.999C15.9167 22.999 16.7299 22.5913 17.2812 21.9492L22.5342 24.8164C22.5117 24.9571 22.5009 25.1042 22.5009 25.251C22.5009 26.7638 23.7215 28 25.2509 28C26.7748 28 27.9999 26.7638 27.9999 25.251C27.9999 23.7381 26.7735 22.501 25.2509 22.501C24.2344 22.501 23.354 23.0464 22.8753 23.8607L17.7919 21.0898C17.9254 20.7509 18.0019 20.383 18.0019 19.998C18.0019 19.614 17.9257 19.2481 17.7929 18.9102L22.8749 16.1377C23.3536 16.9519 24.233 17.499 25.2509 17.499C26.7693 17.499 28 16.2629 28 14.75C28 13.2371 26.7736 12 25.2509 12Z" fill="white"/>
</svg>
