<svg width="50" height="50" viewBox="0 0 50 50" fill="none" xmlns="http://www.w3.org/2000/svg">
<path d="M10.69 26.802C10.6365 26.6151 10.6112 26.4213 10.615 26.227C10.6143 25.979 10.6626 25.7334 10.757 25.5041C10.8515 25.2748 10.9902 25.0664 11.1653 24.8909C11.3404 24.7153 11.5485 24.576 11.7775 24.481C12.0065 24.3859 12.252 24.337 12.5 24.337C12.903 24.3394 13.2949 24.4689 13.62 24.707C14.16 25.057 18.505 28.652 18.66 28.782C18.8653 28.9593 18.9944 29.2089 19.0204 29.4789C19.0465 29.749 18.9676 30.0187 18.8 30.232L15.64 34.187C16.31 37.352 16.935 40.272 16.935 40.352C16.9375 40.387 16.9375 40.422 16.935 40.457C16.9356 40.5936 16.8883 40.7261 16.8014 40.8315C16.7146 40.9369 16.5935 41.0086 16.4593 41.0341C16.3252 41.0596 16.1863 41.0374 16.0668 40.9713C15.9472 40.9051 15.8546 40.7992 15.805 40.672C15.69 40.432 10.8 27.152 10.69 26.802ZM14.52 28.942L15.175 32.032C15.6 31.352 16.055 30.622 16.455 29.992C15.795 29.647 15.145 29.292 14.52 28.942ZM23.405 28.912L24.09 28.917C25.21 28.917 25.71 29.577 25.71 30.272C25.71 30.822 25.365 31.537 24.21 31.537H23.875C23.8177 31.539 23.7606 31.5295 23.707 31.5091C23.6534 31.4887 23.6044 31.4578 23.563 31.4182C23.5215 31.3786 23.4884 31.3311 23.4656 31.2785C23.4427 31.2259 23.4306 31.1693 23.43 31.112C23.4306 31.0551 23.4427 30.9989 23.4657 30.9468C23.4886 30.8948 23.5219 30.8479 23.5635 30.8091C23.6051 30.7703 23.6542 30.7403 23.7078 30.7211C23.7613 30.7018 23.8182 30.6936 23.875 30.697H24.1C24.66 30.697 24.835 30.487 24.835 30.197C24.835 29.907 24.645 29.697 24.1 29.697H22.245V30.947L22.95 32.542C23.5619 32.3262 24.2061 32.2163 24.855 32.217C26.2637 32.2177 27.6237 32.7328 28.6793 33.6656C29.735 34.5983 30.4137 35.8845 30.5878 37.2824C30.762 38.6803 30.4196 40.0937 29.6251 41.257C28.8306 42.4202 27.6386 43.2533 26.2731 43.5996C24.9077 43.9459 23.4627 43.7816 22.2098 43.1376C20.9569 42.4936 19.9824 41.4143 19.4692 40.1023C18.9561 38.7904 18.9398 37.3362 19.4233 36.0131C19.9068 34.69 20.8569 33.589 22.095 32.917L21.35 31.237C21.3261 31.1765 21.3142 31.112 21.315 31.047V28.897L18.49 27.562C18.3722 27.5061 18.267 27.4268 18.181 27.3287C18.095 27.2307 18.03 27.1161 17.99 26.992C17.81 26.492 16.655 23.037 16.52 22.492C16.4068 22.1246 16.442 21.7274 16.6181 21.3856C16.7942 21.0439 17.0972 20.7847 17.4622 20.6637C17.8271 20.5427 18.225 20.5695 18.5704 20.7384C18.9158 20.9072 19.1813 21.2047 19.31 21.567C19.35 21.68 19.377 21.7975 19.39 21.917C19.435 22.262 19.715 25.042 19.815 26.197C20.785 26.912 23.135 28.677 23.405 28.912ZM24.87 42.862C26.1287 42.8216 27.3223 42.2931 28.1984 41.3885C29.0745 40.4838 29.5643 39.2738 29.5643 38.0145C29.5643 36.7551 29.0745 35.5452 28.1984 34.6405C27.3223 33.7358 26.1287 33.2074 24.87 33.167C24.3515 33.1675 23.8365 33.2519 23.345 33.417L25.295 37.827C25.3229 37.8833 25.3392 37.9446 25.3428 38.0074C25.3463 38.0701 25.3371 38.1329 25.3157 38.192C25.2944 38.2511 25.2612 38.3052 25.2183 38.3512C25.1754 38.3971 25.1237 38.4338 25.0662 38.4592C25.0087 38.4846 24.9467 38.498 24.8838 38.4987C24.821 38.4994 24.7587 38.4874 24.7006 38.4634C24.6426 38.4393 24.59 38.4038 24.546 38.3589C24.5021 38.3139 24.4677 38.2606 24.445 38.202L22.49 33.797C21.5574 34.323 20.8254 35.1431 20.4082 36.1292C19.991 37.1153 19.9122 38.2117 20.1841 39.2473C20.456 40.2829 21.0632 41.1993 21.911 41.8533C22.7588 42.5072 23.7993 42.8619 24.87 42.862ZM7.78 32.237C10.972 32.237 13.56 34.8245 13.56 38.017C13.56 41.209 10.972 43.797 7.78 43.797C4.588 43.797 2 41.209 2 38.017C2 34.8245 4.588 32.237 7.78 32.237ZM7.78 42.862V42.847C9.06198 42.8457 10.2913 42.3369 11.1992 41.4318C12.1071 40.5267 12.6197 39.299 12.625 38.017C12.626 37.0573 12.3423 36.1189 11.8097 35.3206C11.2772 34.5222 10.5198 33.8998 9.63333 33.5321C8.7469 33.1644 7.77131 33.068 6.83004 33.2549C5.88877 33.4419 5.02412 33.9039 4.34553 34.5825C3.66695 35.2611 3.20493 36.1258 3.01795 37.067C2.83097 38.0083 2.92744 38.9839 3.29514 39.8703C3.66285 40.7567 4.28526 41.5142 5.0836 42.0467C5.88195 42.5792 6.82034 42.863 7.78 42.862ZM22.11 22.192C21.6207 22.192 21.1514 21.9976 20.8054 21.6516C20.4594 21.3056 20.265 20.8363 20.265 20.347C20.265 19.8577 20.4594 19.3884 20.8054 19.0424C21.1514 18.6964 21.6207 18.502 22.11 18.502C22.5993 18.502 23.0686 18.6964 23.4146 19.0424C23.7606 19.3884 23.955 19.8577 23.955 20.347C23.955 20.8363 23.7606 21.3056 23.4146 21.6516C23.0686 21.9976 22.5993 22.192 22.11 22.192ZM42.605 28.462L42.405 27.982C42.8595 26.6426 43.1941 25.2656 43.405 23.867C43.605 24.597 43.795 25.452 43.975 26.367C44.85 25.537 45.76 24.657 46.705 23.767C46.7336 23.7398 46.7655 23.7162 46.8 23.697C46.8621 23.658 46.9314 23.6319 47.0038 23.6201C47.0762 23.6083 47.1502 23.6111 47.2215 23.6284C47.2927 23.6456 47.3599 23.6769 47.4188 23.7205C47.4778 23.764 47.5275 23.8189 47.565 23.882C47.686 24.0865 47.67 24.344 47.525 24.532L44.1 28.677C43.9492 28.8576 43.734 28.9724 43.5 28.997C43.3134 29.014 43.1262 28.9714 42.9653 28.8753C42.8045 28.7791 42.6783 28.6344 42.605 28.462ZM40.14 21.847C40.2437 21.7991 40.3529 21.7639 40.465 21.742C40.7814 21.6903 41.1058 21.7565 41.3767 21.9279C41.6476 22.0994 41.8462 22.3642 41.935 22.6723C42.0237 22.9804 41.9964 23.3103 41.8581 23.5996C41.7199 23.8889 41.4804 24.1174 41.185 24.242C40.095 24.617 38.855 25.027 37.595 25.397C37.315 26.737 36.985 28.337 36.595 30.117C36.5974 30.1453 36.5974 30.1737 36.595 30.202C36.5491 30.342 36.4524 30.4597 36.3241 30.5321C36.1957 30.6044 36.0449 30.6261 35.9014 30.5929C35.7578 30.5596 35.6319 30.4739 35.5484 30.3525C35.4648 30.2312 35.4298 30.0829 35.45 29.937L35.95 24.587C35.955 24.5005 35.975 24.416 36.01 24.337C36.076 24.167 36.195 24.023 36.35 23.927C37.585 23.257 38.96 22.487 40.14 21.847ZM45.76 32.457L45.745 32.477C45.903 32.5647 46.0392 32.6868 46.1436 32.8342C46.248 32.9817 46.3179 33.1507 46.3482 33.3288C46.3784 33.5069 46.3682 33.6896 46.3183 33.8632C46.2684 34.0369 46.1802 34.1971 46.06 34.332C45.985 34.422 40.8 40.367 40.715 40.452C40.6514 40.5199 40.5737 40.5731 40.4873 40.6076C40.4008 40.6422 40.3079 40.6573 40.215 40.652C40.0989 40.652 39.9852 40.6197 39.8864 40.5586C39.7877 40.4976 39.7079 40.4103 39.656 40.3065C39.6041 40.2027 39.5821 40.0865 39.5925 39.9709C39.603 39.8553 39.6454 39.7448 39.715 39.652C39.92 39.327 41.845 36.237 43.215 34.187C42.24 33.892 41.155 33.527 40.19 33.187L32.38 43.542C32.2928 43.6583 32.1649 43.7372 32.0219 43.763C31.8788 43.7888 31.7314 43.7594 31.6091 43.6809C31.4868 43.6023 31.3989 43.4804 31.3628 43.3396C31.3268 43.1988 31.3455 43.0496 31.415 42.922L38.37 30.267C38.5115 30.0083 38.7208 29.793 38.9753 29.6441C39.2299 29.4953 39.5201 29.4185 39.815 29.422C40.052 29.429 40.285 29.483 40.5 29.582C40.91 29.757 45.53 32.322 45.76 32.457ZM43.335 21.897C42.8538 21.8648 42.4048 21.6441 42.0856 21.2827C41.7663 20.9213 41.6026 20.4484 41.63 19.967C41.6524 19.6078 41.7808 19.2633 41.999 18.9771C42.2172 18.6909 42.5153 18.4758 42.8557 18.359C43.196 18.2421 43.5634 18.2289 43.9114 18.3208C44.2593 18.4127 44.5722 18.6057 44.8104 18.8754C45.0487 19.1451 45.2017 19.4794 45.25 19.8361C45.2983 20.1927 45.2398 20.5556 45.0819 20.879C44.924 21.2024 44.6737 21.4717 44.3628 21.6529C44.0519 21.8341 43.6942 21.919 43.335 21.897ZM18.12 10.592C18.0285 10.606 17.9352 10.6026 17.845 10.582C17.6888 10.5334 17.5579 10.4256 17.4804 10.2817C17.4028 10.1377 17.3847 9.96911 17.43 9.81199C17.4732 9.67118 17.5654 9.55054 17.69 9.47199C17.86 9.34199 23.305 6.66699 23.69 6.54699C23.88 6.48442 24.085 6.48442 24.275 6.54699C24.339 6.56849 24.4005 6.59499 24.46 6.62699C25.025 6.92199 27.42 9.94699 27.96 10.947C28.1525 11.2885 28.189 11.697 28.06 12.067C28.035 12.142 28.005 12.216 27.97 12.287C27.7247 12.8103 27.3372 13.2541 26.8519 13.5679C26.3666 13.8818 25.8029 14.053 25.225 14.062C24.5804 14.0627 23.9528 13.8558 23.435 13.472C22.9175 13.8567 22.2898 14.0645 21.645 14.0645C21.0002 14.0645 20.3725 13.8567 19.855 13.472C19.3375 13.8567 18.7098 14.0645 18.065 14.0645C17.4202 14.0645 16.7925 13.8567 16.275 13.472C15.7708 13.8463 15.1618 14.053 14.5339 14.0629C13.9059 14.0727 13.2907 13.8853 12.775 13.527C16.4491 11.8621 20.384 10.8471 24.405 10.527C24.075 9.91199 23.735 9.25699 23.47 8.72199C21.835 9.35199 18.62 10.477 18.12 10.592ZM33.465 11.902C35.3908 12.1844 37.2892 12.6294 39.14 13.232C38.6268 13.714 37.9604 14.0002 37.2575 14.0404C36.5545 14.0807 35.8598 13.8724 35.295 13.452C34.9305 13.7264 34.5082 13.9141 34.0603 14.0007C33.6123 14.0874 33.1505 14.0707 32.71 13.952C33.1939 13.4456 33.4643 12.7724 33.465 12.072V11.902ZM30.735 10.082C31.2654 10.082 31.7741 10.2927 32.1492 10.6678C32.5243 11.0428 32.735 11.5516 32.735 12.082C32.735 12.6124 32.5243 13.1211 32.1492 13.4962C31.7741 13.8713 31.2654 14.082 30.735 14.082C30.2046 14.082 29.6959 13.8713 29.3208 13.4962C28.9457 13.1211 28.735 12.6124 28.735 12.082C28.735 11.5516 28.9457 11.0428 29.3208 10.6678C29.6959 10.2927 30.2046 10.082 30.735 10.082Z" fill="black"/>
</svg>
