<svg width="14" height="14" viewBox="0 0 14 14" fill="none" xmlns="http://www.w3.org/2000/svg">
<path d="M7 10C7.61956 10 8.13529 9.63145 8.18747 9.15208L8.99297 1.68276C9.03986 1.24956 8.85068 0.821318 8.47195 0.501469C8.09369 0.18203 7.55951 0 7 0C6.44049 0 5.90632 0.18203 5.52802 0.501469C5.14923 0.821318 4.96014 1.24956 5.00703 1.68276L5.81253 9.15208C5.86472 9.63145 6.38044 10 7 10Z" fill="white"/>
<path d="M7.00184 11.7542C6.38156 11.7542 5.87891 12.2568 5.87891 12.8771C5.87891 13.4974 6.38156 14 7.00184 14C7.62212 14 8.12477 13.4974 8.12477 12.8771C8.12477 12.2568 7.62212 11.7542 7.00184 11.7542Z" fill="white"/>
</svg>
