<svg width="50" height="50" viewBox="0 0 50 50" fill="none" xmlns="http://www.w3.org/2000/svg">
<path d="M28.0769 13.75C28.4269 13.7495 28.7769 13.7195 29.1219 13.66V15.43C29.1819 16.035 29.5369 20.905 29.5369 21.535C29.5445 21.8339 29.4865 22.1309 29.3669 22.405C29.1712 22.8491 28.823 23.2084 28.3852 23.4178C27.9474 23.6272 27.4492 23.6728 26.9806 23.5465C26.5121 23.4201 26.1044 23.1301 25.8312 22.729C25.5581 22.3279 25.4377 21.8422 25.4919 21.36C25.5319 20.89 26.3969 16.005 26.5319 15.31C26.5519 15.07 26.6119 14.4 26.6969 13.57C27.1484 13.6835 27.6114 13.744 28.0769 13.75ZM30.4219 19.595C30.4212 19.2912 30.4805 18.9903 30.5963 18.7095C30.7121 18.4286 30.8821 18.1734 31.0967 17.9583C31.3113 17.7433 31.5661 17.5727 31.8467 17.4563C32.1273 17.3399 32.4281 17.28 32.7319 17.28C33.19 17.279 33.638 17.4139 34.0194 17.6677C34.4007 17.9215 34.6982 18.2827 34.8742 18.7056C35.0502 19.1285 35.0968 19.5942 35.008 20.0436C34.9192 20.493 34.6992 20.9059 34.3756 21.2302C34.052 21.5544 33.6396 21.7754 33.1904 21.8651C32.7412 21.9549 32.2754 21.9093 31.8521 21.7343C31.4288 21.5592 31.067 21.2625 30.8124 20.8817C30.5578 20.5009 30.4219 20.0531 30.4219 19.595ZM33.0669 45.495C33.0819 44.565 33.2569 39.13 33.3619 36.505C31.8069 35.95 29.3419 35.035 27.6719 34.395C26.2669 36.03 23.7369 38.86 22.5319 40.135L22.4419 40.23C22.3946 40.2733 22.3445 40.3134 22.2919 40.35L13.9769 46.35C13.7956 46.4781 13.5749 46.5383 13.3537 46.52C13.1324 46.5017 12.9247 46.4062 12.7669 46.25C12.5959 46.0769 12.5 45.8433 12.5 45.6C12.5 45.3567 12.5959 45.1231 12.7669 44.95C12.9619 44.74 18.5069 39.57 20.1419 38.11C21.1619 36.375 24.2519 30.97 24.7019 30.405C25.0398 29.9299 25.536 29.5908 26.1015 29.4488C26.667 29.3067 27.2645 29.371 27.7869 29.63C28.3319 29.88 33.6019 32.995 35.6919 34.18C35.9215 34.3126 36.1119 34.5037 36.2437 34.7338C36.3754 34.9639 36.4438 35.2248 36.4419 35.49C36.4469 35.563 36.4469 35.6365 36.4419 35.71L34.8469 45.655C34.8137 45.8812 34.6951 46.0862 34.5155 46.2278C34.336 46.3694 34.109 46.4368 33.8812 46.4164C33.6535 46.3959 33.4422 46.289 33.2908 46.1177C33.1393 45.9464 33.0592 45.7235 33.0669 45.495ZM28.0819 13C27.4253 12.9915 26.7768 12.8537 26.1734 12.5945C25.57 12.3354 25.0236 11.9599 24.5654 11.4896C24.1071 11.0192 23.746 10.4633 23.5026 9.85336C23.2592 9.24347 23.1383 8.59161 23.1469 7.935C23.1554 7.27839 23.2932 6.62989 23.5524 6.02653C23.8115 5.42317 24.187 4.87676 24.6573 4.4185C25.1276 3.96024 25.6836 3.59911 26.2935 3.35572C26.9034 3.11234 27.5553 2.99146 28.2119 3C29.538 3.01723 30.8029 3.56055 31.7284 4.51042C32.6539 5.4603 33.1641 6.73891 33.1469 8.065C33.1296 9.39108 32.5863 10.656 31.6364 11.5815C30.6866 12.507 29.408 13.0172 28.0819 13ZM28.1269 7.245C28.0251 7.24434 27.9242 7.26374 27.8299 7.30208C27.7356 7.34042 27.6498 7.39695 27.5774 7.46845C27.4311 7.61286 27.3482 7.80945 27.3469 8.015C27.3456 8.22054 27.4259 8.41819 27.5703 8.56447C27.7147 8.71075 27.9113 8.79367 28.1169 8.795C28.3224 8.79632 28.5201 8.71594 28.6663 8.57154C28.8126 8.42714 28.8956 8.23054 28.8969 8.025C28.8982 7.81945 28.8178 7.6218 28.6734 7.47552C28.529 7.32925 28.3324 7.24632 28.1269 7.245Z" fill="black"/>
</svg>
