<svg width="50" height="50" viewBox="0 0 50 50" fill="none" xmlns="http://www.w3.org/2000/svg">
<path d="M27.6314 17.6625C27.419 17.4965 27.2415 17.2902 27.1091 17.0554C26.9767 16.8206 26.892 16.5619 26.86 16.2943C26.8279 16.0266 26.8491 15.7553 26.9223 15.4958C26.9954 15.2364 27.1192 14.994 27.2864 14.7825C27.5371 14.4639 27.8766 14.2268 28.262 14.1012C28.6474 13.9755 29.0614 13.9669 29.4516 14.0765C29.8419 14.1861 30.1909 14.4089 30.4546 14.7168C30.7182 15.0247 30.8847 15.4039 30.9329 15.8064C30.9811 16.2088 30.9089 16.6166 30.7255 16.9781C30.542 17.3395 30.2555 17.6385 29.9021 17.8371C29.5488 18.0358 29.1445 18.1252 28.7403 18.0941C28.3361 18.0631 27.9502 17.9129 27.6314 17.6625ZM25.0164 21.7525C24.7811 21.8833 24.5223 21.9665 24.2548 21.9973C23.9874 22.028 23.7164 22.0058 23.4576 21.9319C23.1987 21.858 22.9569 21.7338 22.746 21.5665C22.5351 21.3991 22.3592 21.1918 22.2284 20.9565C22.0976 20.7212 22.0145 20.4624 21.9837 20.1949C21.9529 19.9275 21.9751 19.6565 22.049 19.3977C22.1229 19.1388 22.2471 18.897 22.4145 18.6861C22.5818 18.4752 22.7891 18.2993 23.0244 18.1685C23.4997 17.9044 24.0604 17.8398 24.5833 17.9891C25.1061 18.1384 25.5483 18.4892 25.8124 18.9645C26.0766 19.4398 26.1411 20.0005 25.9918 20.5234C25.8425 21.0462 25.4917 21.4884 25.0164 21.7525ZM13.6814 34.9675C13.8614 33.6325 14.7714 29.4225 15.4014 27.1725C14.5764 26.3975 13.7114 25.5125 12.8114 24.5475C12.8114 24.5475 3.98141 35.2825 3.84141 35.4475C3.77407 35.5268 3.69866 35.5988 3.61641 35.6625C3.49516 35.755 3.34687 35.805 3.1944 35.8048C3.04192 35.8047 2.89372 35.7544 2.77263 35.6618C2.65154 35.5691 2.56429 35.4392 2.52431 35.2921C2.48434 35.1449 2.49386 34.9887 2.55141 34.8475C2.72141 34.3175 9.80641 22.5325 11.1514 20.6075C11.308 20.3694 11.5144 20.1681 11.7564 20.0175C12.1851 19.7565 12.6997 19.6757 13.1878 19.7928C13.6759 19.9099 14.0978 20.2154 14.3614 20.6425C14.3614 20.6425 17.3214 25.3675 17.6764 25.9925C17.9114 26.5103 17.9312 27.1002 17.7314 27.6325L15.0564 35.3075C15.0085 35.439 14.9234 35.5537 14.8114 35.6375C14.737 35.6956 14.6516 35.738 14.5603 35.7621C14.4691 35.7863 14.3739 35.7918 14.2805 35.7783C14.1871 35.7647 14.0974 35.7324 14.0168 35.6833C13.9361 35.6342 13.8663 35.5693 13.8114 35.4925C13.7081 35.3381 13.6621 35.1523 13.6814 34.9675ZM31.7614 25.5325C32.1814 25.0275 35.3364 21.8925 36.1864 21.1625C36.4895 20.9087 36.8652 20.7575 37.2595 20.7305C37.6539 20.7036 38.0466 20.8023 38.3814 21.0125C38.5899 21.1333 38.7721 21.2947 38.9172 21.4871C39.0623 21.6794 39.1675 21.8989 39.2264 22.1325C39.6206 24.0555 39.8415 26.01 39.8864 27.9725C41.6564 29.4425 44.0164 31.9475 46.4514 34.5775C46.6944 34.8225 46.7239 35.2075 46.5214 35.4875C46.467 35.5649 46.3973 35.6303 46.3167 35.6799C46.2361 35.7294 46.1463 35.7619 46.0527 35.7755C45.959 35.7891 45.8636 35.7834 45.7723 35.7588C45.6809 35.7342 45.5956 35.6912 45.5214 35.6325L37.9314 29.4675C37.7552 29.326 37.6233 29.1368 37.5514 28.9225L36.2914 25.2125C35.2414 26.0825 34.0964 27.0025 33.5364 27.4125C33.2864 29.5525 32.7664 32.3125 32.2064 35.1925C32.1883 35.3008 32.1456 35.4034 32.0814 35.4925C32.027 35.5699 31.9573 35.6353 31.8767 35.6849C31.7961 35.7344 31.7063 35.7669 31.6127 35.7805C31.519 35.7941 31.4236 35.7884 31.3323 35.7638C31.2409 35.7392 31.1556 35.6962 31.0814 35.6375C30.9887 35.5694 30.9141 35.4795 30.8644 35.3757C30.8147 35.2719 30.7914 35.1575 30.7964 35.0425L31.1564 27.2825C31.176 26.6513 31.387 26.041 31.7614 25.5325ZM32.1814 16.5675C32.362 16.3141 32.6117 16.118 32.9008 16.0027C33.1898 15.8874 33.506 15.8579 33.8114 15.9175C34.2204 16.0073 34.577 16.2557 34.8029 16.6082C35.0289 16.9607 35.1056 17.3884 35.0164 17.7975C34.9444 18.1226 34.769 18.4155 34.5164 18.6325L25.9164 26.4075C25.8466 26.4624 25.7659 26.5019 25.6798 26.5235C25.5936 26.545 25.5039 26.5481 25.4164 26.5325H19.6264C19.4499 26.5337 19.2766 26.4852 19.1264 26.3925C19.0059 26.3139 18.9037 26.2103 18.8269 26.0886C18.7501 25.9669 18.7005 25.8301 18.6814 25.6875C18.3138 23.7683 18.1097 21.8213 18.0714 19.8675C18.0789 19.5881 18.16 19.3156 18.3064 19.0775C18.484 18.7894 18.7496 18.5661 19.064 18.4408C19.3784 18.3155 19.7248 18.2947 20.0519 18.3817C20.379 18.4687 20.6694 18.6587 20.88 18.9236C21.0907 19.1885 21.2104 19.5142 21.2214 19.8525C21.2215 21.4898 21.0692 23.1235 20.7664 24.7325C22.2214 24.8825 23.7614 25.1325 25.3414 25.4275C26.5042 23.8822 27.7546 22.4048 29.0864 21.0025C30.0214 19.4975 31.0814 18.0375 32.1814 16.5675Z" fill="black"/>
</svg>
